<?xml version="1.0" encoding="utf-8"?>
<!-- Generator: Adobe Illustrator 25.4.2, SVG Export Plug-In . SVG Version: 6.00 Build 0)  -->
<svg version="1.1" id="Ebene_1" xmlns="http://www.w3.org/2000/svg" xmlns:xlink="http://www.w3.org/1999/xlink" x="0px" y="0px"
	 viewBox="0 0 1920 639" style="enable-background:new 0 0 1920 639;" xml:space="preserve">
<style type="text/css">
	.st0{fill:#C22302;}
	.st1{fill:#1D1D1B;}
</style>
<g>
	<g>
		<path class="st0" d="M1754.7,390.1C1754.7,390.1,1754.7,390.1,1754.7,390.1c-3.8-4.2-14.3-18.9-75.8-35.8L1803,96.5l-6.6-4.6
			l-123.8,257.2c-2-0.8-6.7,1.3-6.7,1.3c0,0,0,0,0,0c-3.5,1.1-7.1,2.2-10.6,3.3c-1-0.3-1.8-0.5-2.5-0.4c-5.9-1.2-12.2-4-16.2,5.4
			c2.8,0.1,5.6,0.1,8.5,0.2c3.9,0.1,7.7,1.1,11.2,2.9c0.8,0.4,1.7-1,2.4,1.2l0,0c1.9,7.4,8.4,9.1,13.1,9.3c3.3,0.2,6.3,2,8.5,4.9
			c10,13.1,25.8,1.3,37.1,8.5c1.7,1,2.4,3.5,3.5,5.3c4.9,5.1,5.9,15.1,11.1,19.9c1.5,1.4,2,3.9,1,5.8c-0.2,0.4-0.4,0.8-0.6,1.2
			c-1.9,4.8-5.8,8-10.2,8.8c-0.4,0.1-0.8,0.2-1.2,0.2v0c0.1-0.8-0.4-1.5-1-1.4c-3.5,0.3-12.4,0.9-14.1,5.8
			c-3.7,0.6-7.4,1.2-10.7,3.5c-4.9,1.8-104.2,14.4-121.8,4.7c1.6-1.3,6.4-5.7,6.4-5.7c-3.1-3.1,2-9.5,5.1-5.8v0
			c8.7-7.7,18.4,9,22.3,4.9c-5.3-10.8-14.6-12-23-15c0,0,0,0,0,0v0c-5.8-1.2-41.7,0.2-60,6.6c-1.6,1-3.2,2-4.8,3c-2.2,2-5,3-7.7,2.8
			c-4.2-0.3-11.1-0.6-15.3-0.7c-2.3-0.1-4.5-0.8-6.5-2.2c-0.7-0.5-1.3-0.9-1.8-1.2c-4.8-3.3-7.9-9.3-8.2-15.9c0-0.3,0-0.5,0-0.8
			c-0.2-5.9,3.3-10.9,8.1-11.6c7.7-1.1,16.3-0.6,12.6-14.1c-1-3.8,0.5-7.9,3.5-9.4c2-1,4.3-2.1,6.4-3.1c3.7-1.7,7.8-1.8,11.6-0.5
			c6.9,2.3,11.9-0.1,13.1-12.4c-5.4,1.7-44.3,6.1-72.6,27.1c-5.3,3.9-9,10.6-9.4,18.1c-0.3,4.7,0.5,9.7,5.5,13.6c0,0,0,0,0,0
			c0,0,0,0,0,0c-0.2,7.5,4.1,69.3,76.7,166.3c0,0,0,0,0,0c5.6,8.1,6.7,9.4,11.8,12.1c21.8,11.5,96.8,13.5,130.4-7.9
			c8.5-8,13.6-18.3,15-31.3c0,0,0,0,0,0c10.6-1.9,61.1-125,61.7-134.7l0,0v0C1757.8,411.1,1766.6,400.6,1754.7,390.1z"/>
		<polygon class="st0" points="1721.1,38.3 1714,35 1612.4,356.6 1619.5,359.9 		"/>
	</g>
	<g>
		<path class="st0" d="M411,266.8c0,19.2-13.4,45.9-40.1,80c-24.8,29.9-49.5,59.7-74.2,89.6c-26.7,33.9-40.1,59.7-40.1,77.6
			c0,18.7,11.9,32.5,35.6,41.6l-53.8,42c-9.7-12.3-14.5-27-14.5-44c0-29.4,12.3-61.1,36.9-95.3c4.5-6.1,9.6-12.5,15.3-19.2
			L161.6,261.9c-2.5-3.7-10.3-5.5-23.4-5.5c-8.9,0-16,0.9-21.2,2.8c20.5-27.7,37.2-41.6,50.1-41.6c8.7,0,16.6,5.6,23.8,16.8
			L302.6,408c16.1-16.3,30.7-34.1,43.8-53.6c17.3-25.9,26-46.9,26-63.2c0-25.6-20.8-38.4-62.4-38.4c26.7-19.2,47.9-28.8,63.5-28.8
			c10.6,0,19.5,4.3,26.7,12.8C407.4,245.3,411,255.3,411,266.8z"/>
		<path class="st0" d="M598.1,432c-26.2,14.9-48,22.4-65.3,22.4c-10.9,0-19.1-3.1-24.5-9.2c-4.7-5.1-8.5-13.7-11.5-26
			c-7.2,11.2-18.6,20.5-34.2,28c-14.6,6.9-28.7,10.4-42.3,10.4c-13.9,0-24.8-4.1-32.9-12.2c-8-8.1-12.1-19.7-12.1-34.6
			c0-20.8,11.9-37.5,35.6-50c19.1-10.1,39.5-15.2,61.3-15.2c13.6,0,22.2,1.9,25.8,5.8c3.6,3.9,6,5.8,7.2,5.8c2.7,0,7.7-1.7,14.8-5.2
			c0,1.1-0.1,2.7-0.4,5c-0.2,2.3-0.4,3.9-0.4,5c0,12.3,3.7,27.3,11.1,45.2c7.9,18.7,20.9,28,39,28C574.5,435.2,584,434.1,598.1,432z
			 M497.9,416.8l-14.1-42.4c-0.7-1.9-7.1-4-18.9-6.4c-10.6-2.1-18.2-3.2-22.6-3.2c-18.8,0-28.2,7.7-28.2,23.2
			c0,35.7,11.5,53.6,34.5,53.6C463.4,441.6,479.8,433.3,497.9,416.8z"/>
		<path class="st0" d="M752.5,391.2c0,17.6-5.3,32.5-16,44.6c-10.6,12.1-24.1,19.4-40.5,21.8c11.9-12,17.8-26.3,17.8-42.8
			c0-13.3-4.1-25-12.2-35c-8.2-10-18.3-15-30.4-15c-10.9,0-22.4,4.3-34.5,12.8c2,9.1,3,18.5,3,28.4c0,9.6-1,18.7-3,27.2l-43.1,30
			c4.9-12.8,7.4-25.7,7.4-38.8c0-15.2-3.2-27.7-9.7-37.6c-3-4.8-6.7-9.6-11.1-14.4c19.8-17.9,30.6-26.8,32.3-26.8
			c6.2,0,13.2,8.5,21.2,25.6c24.3-21.3,49.2-32,75-32C737.9,339.2,752.5,356.5,752.5,391.2z"/>
		<path class="st0" d="M900.3,516.8c0,24-9.7,44.5-29,61.6c-19.3,17.1-36.6,25.6-52,25.6c17.6-9.9,30.1-19.9,37.5-30
			c9.2-12.5,13.7-28.4,13.7-47.6v-72h-50.9c-15.8,0-28.6-3.2-38.4-9.6c-9.8-6.4-14.7-20.1-14.7-41.2c0-19.2,7.8-34,23.4-44.4
			c13.1-9.1,29.1-13.6,47.9-13.6c19.8,0,36,4.5,48.6,13.6c0.5-0.3,2.3-1.7,5.6-4.4c2.5-1.9,4.2-2.8,5.2-2.8c2,0,3,2.7,3,8V516.8z
			 M870.6,435.2v-59.6c0-13.6-8.2-20.4-24.5-20.4c-7.9,0-16.6,2.4-26,7.2c-10.6,5.3-16.8,11.9-18.4,19.6c-1.6,7.7-2.4,14.4-2.4,20
			c0,26.4,14.8,39.6,44.5,39.6C861.7,441.6,870.6,439.5,870.6,435.2z"/>
		<path class="st0" d="M1093.3,340c-24.5,19.2-48.1,28.8-70.9,28.8c-0.2,0-6.4-0.5-18.6-1.6c-7.4,9.9-11.1,21.2-11.1,34
			c0,12.5,3.6,22.5,10.8,29.8c7.2,7.3,16.6,11,28.2,11c5.9,0,15.4-1.8,28.4-5.4c13-3.6,21.1-7,24.3-10.2
			c-9.2,10.9-21.9,20-38.2,27.2c-16.3,7.2-31.6,10.8-45.7,10.8c-13.9,0-25.1-4-33.6-12c-8.5-8-12.8-19.5-12.8-34.4
			c0-10.9,2.7-20.9,8.2-30c3-5.1,9.4-12.9,19.3-23.6c-5.9-1.3-16-2-30.1-2c-14.4,0-27.7,2.1-40.1,6.4c3.5-2.7,8.7-6.5,15.6-11.6
			c5.4-3.7,14-7.5,25.6-11.4c11.6-3.9,20.5-5.8,26.7-5.8c8.7,0,21.5,1.1,38.4,3.2c16.9,2.1,29.8,3.2,38.4,3.2
			C1070.5,346.4,1082.9,344.3,1093.3,340z"/>
		<path class="st0" d="M1214.7,412c0,7.5-11,17.5-33,30c-22,12.5-43.6,18.8-64.6,18.8c-14.6,0-26.6-3.5-36-10.4l30.8-21.6
			c2.2,5.1,8,9.2,17.4,12.4c7.7,2.4,15,3.6,21.9,3.6c16.6,0,24.9-5.7,24.9-17.2c0-6.9-7.4-12.1-22.3-15.6
			c-13.9-2.1-27.7-4.4-41.6-6.8c-14.8-2.4-22.3-5.9-22.3-10.4c0-1.1,1.9-6,5.6-14.8c5.2-12,16.2-22,33-30
			c15.1-7.2,29.6-10.8,43.4-10.8c14.8,0,29.1,2.9,42.7,8.8l-30.8,20c-8.4-8.5-22.3-12.8-41.6-12.8c-13.1,0-19.7,3.2-19.7,9.6
			c0,7.5,7.9,13.3,23.8,17.6c14.8,3.5,29.7,6.9,44.5,10.4C1206.8,397.6,1214.7,404,1214.7,412z"/>
		<path class="st0" d="M1372,371.6l-106.9,30.2c0.2,5.6,2.2,13.7,5.8,24.1c3.6,10.5,16.3,15.7,38.1,15.7c14.6,0,32.4-3.2,53.5-9.6
			c-3.7,3.5-9.2,8.5-16.3,15.2c-5.4,5.1-14.1,9.2-26,12.4c-10.4,2.9-19.9,4.4-28.6,4.4c-17.6,0-32.1-3.3-43.4-10
			c-14.4-8.3-21.5-21.1-21.5-38.4c0-14.1,4.8-27.9,14.5-41.2c14.1-19.2,37.3-28.8,69.7-28.8c23.7,0,42.4,5.6,56,16.9L1372,371.6z
			 M1324.6,378.8v-2c0-4.3-3.8-8-11.4-11.2c-6.4-2.7-11.9-4-16.6-4c-10.6,0-18.2,2.8-22.9,8.4c-3.4,4.5-6.3,13.1-8.5,25.6
			L1324.6,378.8z"/>
	</g>
	<g>
		<path class="st1" d="M1191.1,566.9c-5.6,0-7.9,4.3-8.2,7h16.2C1198.9,571,1196.3,566.9,1191.1,566.9z"/>
		<path class="st1" d="M1161.3,566.9c-5.1,0-7.6,4.5-7.6,4.5v9.5c0,0,2.5,4.5,7.6,4.5c5.3,0,8.6-4.1,8.6-9.2
			C1169.9,571,1166.5,566.9,1161.3,566.9z"/>
		<path class="st1" d="M1280.8,566.9c-5.2,0-8.6,4.1-8.6,9.2c0,5.1,3.4,9.2,8.6,9.2c5.2,0,8.6-4.1,8.6-9.2
			C1289.4,571,1286,566.9,1280.8,566.9z"/>
		<path class="st1" d="M959,532.4V604h413v-71.6H959z M1285.8,551.7c1.7,0,3.2,1.5,3.2,3.2c0,1.7-1.5,3.2-3.2,3.2
			c-1.7,0-3.2-1.5-3.2-3.2C1282.7,553.2,1284.1,551.7,1285.8,551.7z M1275.7,551.7c1.7,0,3.2,1.5,3.2,3.2c0,1.7-1.5,3.2-3.2,3.2
			c-1.7,0-3.2-1.5-3.2-3.2C1272.5,553.2,1274,551.7,1275.7,551.7z M1049,551.7c1.7,0,3.2,1.5,3.2,3.2c0,1.7-1.5,3.2-3.2,3.2
			c-1.7,0-3.2-1.5-3.2-3.2C1045.8,553.2,1047.2,551.7,1049,551.7z M1038.8,551.7c1.7,0,3.2,1.5,3.2,3.2c0,1.7-1.5,3.2-3.2,3.2
			s-3.2-1.5-3.2-3.2C1035.6,553.2,1037.1,551.7,1038.8,551.7z M1024.7,589h-4.7v-17.9h-19.6V589h-4.7v-39.2h4.7v16.8h19.6v-16.8h4.7
			V589z M1054.9,589h-4.4v-4c0,0-2.4,4.6-7.9,4.6c-5.1,0-9.7-3.5-9.7-9.9v-16.6h4.7V579c0,4.4,2.7,6.3,6.2,6.3
			c4.4,0,6.4-4.3,6.4-4.3v-17.9h4.7V589z M1075.7,567.4c0,0-1-0.6-3-0.6c-4.1,0-5.9,4.4-5.9,4.4V589h-4.7v-25.9h4.4v4
			c0,0,2.3-4.6,7.2-4.6c2.1,0,3.7,0.7,3.7,0.7L1075.7,567.4z M1091.7,589.7c-3.7,0-7.8-2.4-7.8-8.1v-14.2h-5v-4.3h5v-7.9h4.7v7.9
			h8.1v4.3h-8.1v13.9c0,2.5,1.2,4,3.7,4c1.5,0,3-1.1,3-1.1l1.7,3.9C1094.8,589.4,1093.2,589.7,1091.7,589.7z M1125.2,589h-4.7v-15.8
			c0-4.4-2.7-6.3-6.2-6.3c-4.2,0-6.4,4.4-6.4,4.4V589h-4.7v-42.3h4.7v19.6c0.8-1.1,3.1-3.8,7.6-3.8c5.1,0,9.7,3.5,9.7,9.9V589z
			 M1162.1,589.7c-6.2,0-8.7-4.4-8.7-4.4v3.7h-4.3v-42.3h4.7v19.6c0,0,2.6-3.9,8.3-3.9c7,0,12.5,6,12.5,13.6
			C1174.6,583.7,1169.1,589.7,1162.1,589.7z M1203.6,577.8h-20.9c0.3,3.9,4,7.6,8.9,7.6c5.1,0,7.8-3.8,7.8-3.8l3,3.1
			c0,0-3.9,5.1-10.7,5.1c-7.8,0-13.5-5.9-13.5-13.6c0-7.6,5.1-13.6,12.9-13.6c7.2,0,12.6,5.4,12.6,13.8
			C1203.7,576.8,1203.7,577.2,1203.6,577.8z M1214.6,589h-4.7v-25.9h4.7V589z M1212.3,558.1c-1.7,0-3.2-1.5-3.2-3.2
			c0-1.7,1.5-3.2,3.2-3.2s3.2,1.5,3.2,3.2C1215.4,556.6,1214,558.1,1212.3,558.1z M1261.3,589l-17.3-18.7V589h-4.7v-39.2h4.7v18.4
			l15.8-18.4h6l-16.6,19.1l18.4,20H1261.3z M1280.8,589.7c-7.6,0-13.3-6-13.3-13.6c0-7.6,5.7-13.6,13.3-13.6c7.6,0,13.3,6,13.3,13.6
			C1294.1,583.7,1288.4,589.7,1280.8,589.7z M1305.2,589h-4.7v-42.3h4.7V589z M1335.4,589h-4.7v-15.8c0-4.4-2.7-6.3-6.2-6.3
			c-4.2,0-6.4,4.4-6.4,4.4V589h-4.7v-25.9h4.4v3.6c0,0,2.4-4.3,7.9-4.3c5.1,0,9.7,3.5,9.7,9.9V589z"/>
	</g>
</g>
</svg>
